<svg width="48" height="48" xmlns="http://www.w3.org/2000/svg" xmlns:xlink="http://www.w3.org/1999/xlink" overflow="hidden"><defs><clipPath id="clip0"><rect x="55" y="412" width="48" height="48"/></clipPath></defs><g clip-path="url(#clip0)" transform="translate(-55 -412)"><path d="M90.65 442.95C89.55 441.85 87.75 441.9 86.4 442.95L84.3 440.85C89.75 434.95 89.4 425.8 83.5 420.35 77.6 414.9 68.5 415.3 63.05 421.2 57.6 427.1 58 436.25 63.85 441.7 69.45 446.9 78.1 446.85 83.65 441.6L85.75 443.7C85.3 444.25 85.05 444.95 84.95 445.65 84.85 446.5 85.15 447.35 85.75 447.95L92.8 455C93.35 455.5 94.05 455.8 94.8 455.8 95.8 455.8 96.7 455.4 97.4 454.7 98.05 454.1 98.45 453.25 98.5 452.35 98.6 451.5 98.3 450.65 97.7 450.05L90.65 442.95ZM64.2 440.55C58.95 435.3 58.95 426.75 64.2 421.45 69.45 416.15 78 416.2 83.3 421.45 88.6 426.7 88.55 435.25 83.3 440.55 80.75 443.1 77.35 444.5 73.75 444.5 70.2 444.5 66.75 443.1 64.2 440.55ZM96.65 453.9C95.7 454.85 94.25 455 93.45 454.2L86.45 447.2C86.05 446.8 85.9 446.25 85.95 445.7 86 445.05 86.3 444.45 86.8 444 87.3 443.5 88 443.2 88.7 443.15 89.2 443.15 89.65 443.3 90 443.65L97 450.7C97.4 451.1 97.55 451.65 97.5 452.2 97.4 452.85 97.15 453.45 96.65 453.9 96.65 453.9 96.65 453.9 96.65 453.9Z"/></g></svg>